<?xml version="1.0" encoding="UTF-8"?>
<svg width="249px" height="199px" viewBox="0 0 249 199" version="1.1" xmlns="http://www.w3.org/2000/svg" xmlns:xlink="http://www.w3.org/1999/xlink">
    <!-- Generator: Sketch 48.2 (47327) - http://www.bohemiancoding.com/sketch -->
    <title>logo</title>
    <desc>Created with Sketch.</desc>
    <defs></defs>
    <g id="Login" stroke="none" stroke-width="1" fill="none" fill-rule="evenodd" transform="translate(-63.000000, -127.000000)">
        <g id="Header" transform="translate(63.000000, 55.000000)" fill="#BD2436" fill-rule="nonzero">
            <g id="logo" transform="translate(0.000000, 72.000000)">
                <g id="Group">
                    <path d="M0.577391304,46.7938406 C0.216521739,49.3894928 0,52.0572464 0,54.7971014 C0.144347826,67.7032609 4.98,79.3836957 12.7747826,88.3963768 L117.643478,193.159783 L132.366957,178.451087 L0.577391304,46.7938406" id="Shape"></path>
                    <path d="M87.4747826,16.0065217 C78.0921739,7.35434783 65.4617391,2.01884058 51.6043478,2.16304348 C49.2947826,2.16304348 46.9852174,2.37934783 44.7478261,2.73985507 L177.547826,135.406522 L192.271304,120.697826 L87.4747826,16.0065217" id="Shape"></path>
                    <path d="M195.952174,0.721014493 C182.6,0.865217391 170.474783,6.05652174 161.308696,14.4202899 L50.0165217,125.528623 L64.74,140.237319 L203.891304,1.29782609 C201.293043,0.865217391 198.622609,0.648913043 195.952174,0.721014493" id="Shape"></path>
                    <path d="M225.254783,9.30108696 L81.1234783,153.21558 L95.8469565,167.924275 L239.906087,24.0818841 C236.08087,18.2416667 231.10087,13.1945652 225.254783,9.30108696" id="Shape"></path>
                    <path d="M248.63913,52.2735507 C248.63913,49.8942029 248.350435,47.659058 248.061739,45.3518116 L108.838261,184.291304 L123.561739,199 L235.647826,87.0264493 C243.875652,77.7974638 248.783478,65.6123188 248.63913,52.2735507" id="Shape"></path>
                </g>
                <path d="M23.7235588,11 C20.7644122,12.9495913 18.0939628,15.1158038 15.6400363,17.5708447 L14.9904675,18.2207084 C12.753064,20.5313351 10.8043577,22.986376 9,25.5858311 L153.276441,170 L168,155.269755 L23.7235588,11" id="Shape"></path>
                <polyline id="Shape" points="177 106.344086 162.271889 121 130 88.7281106 144.728111 74 177 106.344086"></polyline>
                <polyline id="Shape" points="119 165.163636 104.163636 180 71 146.836364 85.8363636 132 119 165.163636"></polyline>
                <polyline id="Shape" points="113.586826 150 99 135.341317 132.341317 102 147 116.586826 113.586826 150"></polyline>
            </g>
        </g>
    </g>
</svg>